<?xml version="1.0" encoding="utf-8"?>
<!DOCTYPE svg PUBLIC "-//W3C//DTD SVG 1.1//EN" "http://www.w3.org/Graphics/SVG/1.1/DTD/svg11.dtd">
<svg xmlns="http://www.w3.org/2000/svg" xmlns:xlink="http://www.w3.org/1999/xlink" version="1.1" baseProfile="full" width="64" height="64" viewBox="0 0 64.00 64.00" enable-background="new 0 0 64.00 64.00" xml:space="preserve">
	<ellipse fill="#FFFFFF" fill-opacity="1" stroke-linejoin="round" cx="9.98407" cy="34.492" rx="8.94082" ry="9.79827"/>
	<ellipse fill="#FFFFFF" fill-opacity="1" stroke-linejoin="round" cx="27.2768" cy="22.9968" rx="18.5241" ry="19.1039"/>
	<ellipse fill="#FFFFFF" fill-opacity="1" stroke-linejoin="round" cx="49.0667" cy="29.4013" rx="13.9734" ry="14.889"/>
	<ellipse fill="#FFFFFF" fill-opacity="1" stroke-linejoin="round" cx="48.4778" cy="20.8073" rx="8.99435" ry="6.51394"/>
	<rect x="9.39516" y="37.3932" fill="#FFFFFF" fill-opacity="1" stroke-width="13.3333" stroke-linejoin="round" width="39.5109" height="6.89711"/>
	<path fill="#FFFFFF" fill-opacity="1" stroke-linejoin="round" d="M 31.5494,38.4533L 25.9494,49.8667L 31.2827,49.76L 26.9094,60.7467L 38.4828,47.4667L 33.1494,47.4667L 36.7761,39.4667L 31.5494,38.4533 Z "/>
	<path fill="#FFFFFF" fill-opacity="1" stroke-linejoin="round" d="M 13.5451,52.8595C 14.9113,53.2772 15.6959,54.6719 15.2976,55.9747C 14.8993,57.2775 13.4689,57.995 12.1027,57.5773C 10.7366,57.1596 9.95197,55.7649 10.3503,54.4621C 10.7486,53.1593 12.1789,52.4418 13.5451,52.8595 Z "/>
	<path fill="#FFFFFF" fill-opacity="1" stroke-linejoin="round" d="M 10.6277,53.9195C 11.4234,53.0195 12.2191,52.1195 12.8728,51.3341C 13.5266,50.5487 14.0384,49.8779 14.5502,49.2071C 14.5645,50.2246 14.5787,51.2421 14.7147,52.1807C 14.8507,53.1192 15.1084,53.9788 15.3661,54.8384"/>
	<path fill="#FFFFFF" fill-opacity="1" stroke-linejoin="round" d="M 22.0511,48.6689C 23.064,48.9281 23.672,49.8975 23.4091,50.8342C 23.1461,51.7708 22.1118,52.32 21.0989,52.0608C 20.086,51.8016 19.478,50.8322 19.7409,49.8955C 20.0039,48.9589 21.0382,48.4097 22.0511,48.6689 Z "/>
	<path fill="#FFFFFF" fill-opacity="1" stroke-linejoin="round" d="M 19.9779,49.3401C 20.5152,48.7737 21.0525,48.2074 21.4438,47.7267C 21.8351,47.2461 22.0803,46.8511 22.3256,46.4561C 22.4789,47.0675 22.6323,47.6789 22.8225,48.254C 23.0127,48.8291 23.2397,49.3679 23.4668,49.9067"/>
	<path fill="#FFFFFF" fill-opacity="1" stroke-linejoin="round" d="M 47.503,50.0006C 48.8692,50.4182 49.6538,51.8129 49.2555,53.1157C 48.8572,54.4185 47.4268,55.136 46.0606,54.7184C 44.6945,54.3007 43.9099,52.906 44.3082,51.6032C 44.7065,50.3004 46.1369,49.5829 47.503,50.0006 Z "/>
	<path fill="#FFFFFF" fill-opacity="1" stroke-linejoin="round" d="M 44.5856,51.0606C 45.3813,50.1606 46.177,49.2606 46.8307,48.4752C 47.4845,47.6898 47.9963,47.019 48.5081,46.3482C 48.5224,47.3657 48.5366,48.3832 48.6726,49.3218C 48.8086,50.2603 49.0663,51.1199 49.324,51.9794"/>
	<path fill="#FFFFFF" fill-opacity="1" stroke-linejoin="round" d="M 39.2201,55.7841C 40.2331,56.0433 40.841,57.0127 40.5781,57.9494C 40.3151,58.886 39.2808,59.4352 38.2679,59.176C 37.255,58.9169 36.647,57.9474 36.9099,57.0108C 37.1729,56.0741 38.2072,55.5249 39.2201,55.7841 Z "/>
	<path fill="#FFFFFF" fill-opacity="1" stroke-linejoin="round" d="M 37.1469,56.4553C 37.6842,55.889 38.2215,55.3226 38.6128,54.8419C 39.0041,54.3613 39.2493,53.9663 39.4946,53.5714C 39.648,54.1828 39.8013,54.7942 39.9915,55.3692C 40.1817,55.9443 40.4087,56.4831 40.6358,57.0219"/>
</svg>
